<svg xmlns="http://www.w3.org/2000/svg" version="1.1" xmlns:xlink="http://www.w3.org/1999/xlink" xmlns:svgjs="http://svgjs.com/svgjs" width="1440" height="560" preserveAspectRatio="none" viewBox="0 0 1440 560">
    <g mask="url(&quot;#SvgjsMask1023&quot;)" fill="none">
        <rect width="1440" height="560" x="0" y="0" fill="rgba(32, 194, 215, 1)"></rect>
        <path d="M485.55 497.11L489.29 497.11L489.29 500.85L485.55 500.85z" stroke="rgba(134, 111, 255, 1)"></path>
        <path d="M892.1 439.28a30.98 30.98 0 1 0 52.54-32.85z" fill="rgba(255, 120, 120, 1)"></path>
        <path d="M312.86 512.94 a54.29 54.29 0 1 0 108.58 0 a54.29 54.29 0 1 0 -108.58 0z" stroke="rgba(134, 111, 255, 1)"></path>
        <path d="M1292.78 142.86L1296.51 142.86L1296.51 169.43L1292.78 169.43z" fill="rgba(36, 33, 48, 1)"></path>
        <path d="M845.28 175.94a54.45 54.45 0 1 0 65.44-87.04z" stroke="rgba(255, 120, 120, 1)"></path>
        <path d="M1033.49 554.4L1079.26 554.4L1079.26 591.01L1033.49 591.01z" stroke="rgba(255, 255, 255, 1)"></path>
        <path d="M259.05 432.55L262.94 432.55L262.94 461.78L259.05 461.78z" stroke="rgba(36, 33, 48, 1)"></path>
        <path d="M733.4 246.86a16.82 16.82 0 1 0-30.18 14.85z" fill="rgba(255, 120, 120, 1)"></path>
        <path d="M574.79 319.8L617.61 319.8L617.61 359.56L574.79 359.56z" fill="rgba(134, 111, 255, 1)"></path>
        <path d="M305 530.24L345.42 530.24L345.42 570.66L305 570.66z" fill="rgba(255, 120, 120, 1)"></path>
        <path d="M809.82 57.72L862.94 57.72L862.94 62.66L809.82 62.66z" stroke="rgba(134, 111, 255, 1)"></path>
        <path d="M836.12 495.02L872.37 495.02L872.37 531.27L836.12 531.27z" stroke="rgba(36, 33, 48, 1)"></path>
        <path d="M229.95 195.81L238.56 195.81L238.56 204.42L229.95 204.42z" fill="rgba(134, 111, 255, 1)"></path>
        <path d="M1199.55 344.39L1217.84 344.39L1217.84 381.21L1199.55 381.21z" fill="rgba(255, 120, 120, 1)"></path>
        <path d="M264.55 346.48L299.81 346.48L299.81 381.74L264.55 381.74z" stroke="rgba(134, 111, 255, 1)"></path>
        <path d="M908.68 278.32L944.1 278.32L944.1 313.74L908.68 313.74z" stroke="rgba(36, 33, 48, 1)"></path>
        <path d="M409.38 501.27a2.3 2.3 0 1 0 4.48-1.02z" fill="rgba(255, 255, 255, 1)"></path>
        <path d="M1241.89 258.81a0.02 0.02 0 1 0-0.04 0.02z" stroke="rgba(255, 255, 255, 1)"></path>
        <path d="M155.62 184.25 a51.01 51.01 0 1 0 102.02 0 a51.01 51.01 0 1 0 -102.02 0z" stroke="rgba(134, 111, 255, 1)"></path>
        <path d="M1160.42 483.48a49.02 49.02 0 1 0 30.02-93.33z" fill="rgba(255, 255, 255, 1)"></path>
        <path d="M347.4 396.68 a11.91 11.91 0 1 0 23.82 0 a11.91 11.91 0 1 0 -23.82 0z" fill="rgba(134, 111, 255, 1)"></path>
        <path d="M272.67 453.9L273.11 453.9L273.11 454.34L272.67 454.34z" stroke="rgba(255, 255, 255, 1)"></path>
        <path d="M1238.28 566.2a52.18 52.18 0 1 0-101.88-22.61z" stroke="rgba(255, 120, 120, 1)"></path>
        <path d="M288.78 468a43.07 43.07 0 1 0 34.15-79.08z" fill="rgba(255, 120, 120, 1)"></path>
        <path d="M-20.05 142.92 a26.83 26.83 0 1 0 53.66 0 a26.83 26.83 0 1 0 -53.66 0z" stroke="rgba(36, 33, 48, 1)"></path>
        <path d="M1286.6 280.62a22.59 22.59 0 1 0-43.37 12.67z" stroke="rgba(134, 111, 255, 1)"></path>
        <path d="M305.47 271.91L317.63 271.91L317.63 284.07L305.47 284.07z" fill="rgba(255, 120, 120, 1)"></path>
        <path d="M572.6 256.26a6.31 6.31 0 1 0-1.79-12.49z" fill="rgba(134, 111, 255, 1)"></path>
        <path d="M976.03 506.05L1026.54 506.05L1026.54 556.56L976.03 556.56z" stroke="rgba(134, 111, 255, 1)"></path>
        <path d="M836.01 17.06 a6.22 6.22 0 1 0 12.44 0 a6.22 6.22 0 1 0 -12.44 0z" stroke="rgba(255, 255, 255, 1)"></path>
        <path d="M74.19 225.37L93.55 225.37L93.55 257.11L74.19 257.11z" stroke="rgba(255, 120, 120, 1)"></path>
        <path d="M49.26 514.66L102.78 514.66L102.78 568.18L49.26 568.18z" stroke="rgba(134, 111, 255, 1)"></path>
        <path d="M705.52 480.72L758.45 480.72L758.45 533.65L705.52 533.65z" stroke="rgba(36, 33, 48, 1)"></path>
    </g>
    <defs>
        <mask id="SvgjsMask1023">
            <rect width="1440" height="560" fill="#ffffff"></rect>
        </mask>
    </defs>
</svg>