<svg xmlns="http://www.w3.org/2000/svg" width="155.107" height="98.264" viewBox="0 0 155.107 98.264"><g transform="translate(-529.968 -5958.497)" opacity="0.6"><g transform="translate(534 5962.5)" opacity="0.05"><path d="M31.606,64.592c3.7-.686,7.306-1,10.686-2.043A32,32,0,0,0,34.482.067C18.849-.728,4.8,9.518,1.515,24.751c-4.14,19.184.085,36.334,14.143,50.434,8.559,8.584,19.4,12.795,31.194,14.763.631.105,1.266.182,2.341.336-7.332-7.912-14.824-15.3-17.586-25.691" transform="translate(0 -0.023)" fill="none" stroke="#191919" stroke-linecap="round" stroke-linejoin="round" stroke-width="8"/></g><g transform="translate(616.343 5962.5)" opacity="0.05"><path d="M31.606,64.592c3.7-.686,7.306-1,10.686-2.043A32,32,0,0,0,34.482.067C18.849-.728,4.8,9.518,1.515,24.751c-4.14,19.184.085,36.334,14.143,50.434,8.559,8.584,19.4,12.795,31.194,14.763.631.105,1.266.182,2.341.336-7.332-7.912-14.824-15.3-17.586-25.691" transform="translate(0 -0.023)" fill="none" stroke="#191919" stroke-linecap="round" stroke-linejoin="round" stroke-width="8"/></g></g></svg>