<svg xmlns="http://www.w3.org/2000/svg" xmlns:xlink="http://www.w3.org/1999/xlink" width="25.877" height="24.735" viewBox="0 0 25.877 24.735"><defs><clipPath id="a"><rect width="25.877" height="24.735" transform="translate(0 0)" fill="#AEAEAE"/></clipPath></defs><g transform="translate(0 0)" clip-path="url(#a)"><path d="M14.08.71l3.011,6.1a1.274,1.274,0,0,0,.959.7l6.733.979a1.274,1.274,0,0,1,.706,2.173l-4.872,4.749a1.274,1.274,0,0,0-.366,1.127l1.15,6.706a1.274,1.274,0,0,1-1.848,1.343l-6.023-3.166a1.274,1.274,0,0,0-1.186,0L6.323,24.586a1.274,1.274,0,0,1-1.848-1.343l1.15-6.706a1.274,1.274,0,0,0-.366-1.127L.386,10.66a1.274,1.274,0,0,1,.706-2.173l6.733-.979a1.274,1.274,0,0,0,.959-.7L11.8.71a1.274,1.274,0,0,1,2.285,0" transform="translate(0 0)" fill="#AEAEAE"/></g></svg>


